<svg xmlns="http://www.w3.org/2000/svg" viewBox="0 0 400 400" fill="none">
  <rect width="400" height="400" rx="80" fill="#3B99FC"/>
  <path d="M122.519 148.965C164.024 108.385 231.325 108.385 272.83 148.965L277.832 153.856C279.908 155.886 279.908 159.176 277.832 161.206L260.722 177.935C259.684 178.95 258 178.95 256.961 177.935L250.078 171.203C221.117 142.889 174.232 142.889 145.271 171.203L137.902 178.409C136.863 179.423 135.18 179.423 134.141 178.409L117.031 161.679C114.955 159.65 114.955 156.36 117.031 154.33L122.519 148.965ZM308.106 182.966L323.327 197.848C325.403 199.877 325.403 203.168 323.327 205.197L254.707 272.303C252.631 274.333 249.264 274.333 247.188 272.303L198.476 224.667C197.957 224.159 197.116 224.159 196.596 224.667L147.884 272.303C145.808 274.333 142.441 274.333 140.365 272.303L71.745 205.197C69.669 203.168 69.669 199.877 71.745 197.848L86.966 182.966C89.042 180.936 92.409 180.936 94.485 182.966L143.197 230.602C143.717 231.11 144.558 231.11 145.078 230.602L193.79 182.966C195.866 180.936 199.233 180.936 201.309 182.966L250.021 230.602C250.541 231.11 251.382 231.11 251.902 230.602L300.614 182.966C302.689 180.936 306.056 180.936 308.132 182.966H308.106Z" fill="white"/>
</svg>